<?xml version="1.0" encoding="UTF-8" standalone="no"?>
<!DOCTYPE svg PUBLIC "-//W3C//DTD SVG 1.1//EN" "http://www.w3.org/Graphics/SVG/1.1/DTD/svg11.dtd">
<svg width="100%" height="100%" viewBox="0 0 660 645" version="1.1" xmlns="http://www.w3.org/2000/svg" xmlns:xlink="http://www.w3.org/1999/xlink" xml:space="preserve" xmlns:serif="http://www.serif.com/" style="fill-rule:evenodd;clip-rule:evenodd;stroke-linejoin:round;stroke-miterlimit:2;">
    <g transform="matrix(4.16667,0,0,4.16667,659.192,1.55)">
        <path d="M0,153.985L-0.036,153.314L-0.036,65.301L-12.406,65.525L-12.626,28.667L-23.385,28.667L-23.605,16.828L-34.803,16.828L-34.803,5.435L-57.42,5.212L-57.858,-0.372L-103.531,-0.372L-103.751,4.988L-125.269,5.212L-125.269,16.604L-137.127,16.381L-137.127,27.997L-149.424,27.997L-149.643,63.738L-158.206,63.514L-157.987,153.761L-149.424,153.761L-149.369,144.38L-137.346,144.38L-137.346,131.645L-125.195,131.573L-125.195,143.485L-113.777,143.634L-113.632,154.208L-92.406,154.357L-92.406,131.573L-70.155,131.423L-70.301,154.208L-44.684,154.357L-44.537,142.889L-34.146,142.889L-34.255,131.423L-23.715,131.423L-23.605,142.816L-12.626,142.591L-12.626,154.096L0,153.985Z" style="fill:rgb(237,31,36);fill-rule:nonzero;"/>
    </g>
    <g transform="matrix(4.16667,0,0,4.16667,519.665,311.063)">
        <path d="M0,-34.473L-12.734,-34.473L-12.734,-45.452L-36.01,-45.452L-36.01,-34.473L-46.11,-34.473L-46.11,-0.877L-36.01,-0.877L-36.01,10.979L-12.734,10.979L-12.734,-0.877L0,-0.877L0,-34.473Z" style="fill:white;fill-rule:nonzero;"/>
    </g>
    <g transform="matrix(4.16667,0,0,4.16667,234.216,312.762)">
        <path d="M0,-34.117L-12.735,-34.117L-12.735,-44.981L-36.011,-44.981L-36.011,-34.117L-46.111,-34.117L-46.111,-0.87L-36.011,-0.87L-36.011,10.864L-12.735,10.864L-12.735,-0.87L0,-0.87L0,-34.117Z" style="fill:white;fill-rule:nonzero;"/>
    </g>
    <g transform="matrix(-4.16667,0,0,4.16667,3208.37,-197.847)">
        <rect x="669.443" y="100.328" width="21.957" height="20.859" style="fill:rgb(45,85,166);"/>
    </g>
    <g transform="matrix(-4.16667,0,0,4.16667,2637.47,-193.48)">
        <rect x="600.935" y="99.912" width="21.957" height="20.643" style="fill:rgb(45,85,166);"/>
    </g>
</svg>
