<?xml version="1.0" encoding="UTF-8"?>
<svg id="Layer_1" xmlns="http://www.w3.org/2000/svg" version="1.1" viewBox="0 0 850.4 850.4">
  <!-- Generator: Adobe Illustrator 29.7.1, SVG Export Plug-In . SVG Version: 2.1.1 Build 8)  -->
  <defs>
    <style>
      .st0 {
        fill: #fdd4b1;
      }

      .st1 {
        fill: #f16254;
      }

      .st2 {
        opacity: .3;
      }

      .st3 {
        fill: #ee3328;
      }

      .st4 {
        fill: #c27029;
      }
    </style>
  </defs>
  <path class="st3" d="M197.3,361.9c19.2-11.3,41.1-17.2,63.3-17.4,16.6-.2,36.3,1.2,50.4,6.9,25.1,10.5,124.3,13.5,154.3,100.3,20.9,68.6-32.8,225-176.6,218.7s-185.7-115.2-174.5-203.8c10.9-53.3,53.1-87,83-104.6Z"/>
  <path class="st3" d="M465.2,464s44.2-16.1,87.5-11.6c30.2-.8,92.5-5.5,135.8,34.2,43.2,39.7,83,136.8,5,226.3-77.9,89.5-229.3,76.4-291.1-14.1-61.8-90.5-22.1-200.6,62.8-234.8Z"/>
  <path class="st0" d="M420.6,546.6c6.1-14.8,20.5-36.4,37.6-31.1,17.1,5.3-1.1,35.7-7.2,44.4s-9.1,33-26.9,28.8c-17.8-4.2-3.4-42.1-3.4-42.1Z"/>
  <path class="st1" d="M191.8,456.3c7.1-14.7,26.9-46.8,26.9-50.3s-31.5-11.2-56.4,29c-14.2,21.3-3.6,59,6.1,59.5s23.4-38.1,23.4-38.1Z"/>
  <path class="st2" d="M279.8,382.3s50.4,21.4,75.6,4.8l-39.6-29-36,24.2Z"/>
  <path class="st2" d="M496.4,478.1s30.1,28,114.1,0l-59.3-21.2-54.8,21.2Z"/>
  <path class="st4" d="M279.8,382.3s30.4,12.3,45.9,11.5c0,0,17.4-98.9,85.9-161.8,68.5-62.9,135.5-69.1,140.6-66,5.1,3.1,7.8,13.9,3.7,32.1-4,18.3-37.8,168-27.9,291.7,0,0,28.3,2.4,45.4-2.3,0,0-10.3-243.2,46.9-314.9,5.9-7.4,15-11.6,24.4-11.6h43.9c16.9,0,30.6-13.7,30.6-30.6v-22.9c0-16.9-13.7-30.6-30.6-30.6h-107.8c-14.5,0-27.4,8.7-33.3,21.9-2.2,4.9-4.7,9.2-7.4,11.2-8.1,5.9-197.9,34-260.4,272.5Z"/>
</svg>