<?xml version="1.0" encoding="UTF-8" standalone="no"?>
<!DOCTYPE svg PUBLIC "-//W3C//DTD SVG 1.1//EN" "http://www.w3.org/Graphics/SVG/1.1/DTD/svg11.dtd">
<svg width="100%" height="100%" viewBox="0 0 693 678" version="1.1" xmlns="http://www.w3.org/2000/svg" xmlns:xlink="http://www.w3.org/1999/xlink" xml:space="preserve" xmlns:serif="http://www.serif.com/" style="fill-rule:evenodd;clip-rule:evenodd;stroke-linejoin:round;stroke-miterlimit:2;">
    <g transform="matrix(4.16667,0,0,4.16667,692.938,1.63333)">
        <path d="M0,161.867L-0.038,161.162L-0.038,68.644L-13.041,68.879L-13.272,30.135L-24.582,30.135L-24.813,17.689L-36.584,17.689L-36.584,5.713L-60.359,5.478L-60.821,-0.392L-108.831,-0.392L-109.062,5.243L-131.682,5.478L-131.682,17.454L-144.146,17.22L-144.146,29.429L-157.072,29.429L-157.303,67.001L-166.305,66.765L-166.074,161.632L-157.072,161.632L-157.014,151.77L-144.377,151.77L-144.377,138.386L-131.604,138.307L-131.604,150.83L-119.602,150.987L-119.449,162.101L-97.136,162.259L-97.136,138.307L-73.747,138.15L-73.9,162.101L-46.972,162.259L-46.817,150.204L-35.892,150.204L-36.008,138.15L-24.928,138.15L-24.813,150.126L-13.272,149.89L-13.272,161.984L0,161.867Z" style="fill:rgb(243,119,32);fill-rule:nonzero;"/>
    </g>
    <g transform="matrix(4.16667,0,0,4.16667,546.272,326.998)">
        <path d="M0,-36.24L-13.388,-36.24L-13.388,-47.78L-37.854,-47.78L-37.854,-36.24L-48.472,-36.24L-48.472,-0.925L-37.854,-0.925L-37.854,11.54L-13.388,11.54L-13.388,-0.925L0,-0.925L0,-36.24Z" style="fill:white;fill-rule:nonzero;"/>
    </g>
    <g transform="matrix(4.16667,0,0,4.16667,246.207,328.772)">
        <path d="M0,-35.862L-13.387,-35.862L-13.387,-47.283L-37.854,-47.283L-37.854,-35.862L-48.472,-35.862L-48.472,-0.913L-37.854,-0.913L-37.854,11.421L-13.387,11.421L-13.387,-0.913L0,-0.913L0,-35.862Z" style="fill:white;fill-rule:nonzero;"/>
    </g>
    <g transform="matrix(-4.16667,0,0,4.16667,992.194,-184.21)">
        <rect x="132.411" y="99.76" width="23.082" height="21.928" style="fill:rgb(45,85,166);"/>
    </g>
    <g transform="matrix(-4.16667,0,0,4.16667,392.069,-179.61)">
        <rect x="60.396" y="99.322" width="23.082" height="21.7" style="fill:rgb(45,85,166);"/>
    </g>
</svg>
