<?xml version="1.0" encoding="UTF-8"?>
<svg id="Layer_1" data-name="Layer 1" xmlns="http://www.w3.org/2000/svg" viewBox="0 0 732.6 772.9">
  <defs>
    <style>
      .cls-1, .cls-2 {
        stroke: #000;
        stroke-miterlimit: 10;
      }

      .cls-2 {
        fill: #3464af;
      }
    </style>
  </defs>
  <g>
    <circle class="cls-2" cx="246.1" cy="389.95" r="32.8"/>
    <circle class="cls-2" cx="469.2" cy="389.95" r="32.8"/>
  </g>
  <path class="cls-1" d="M732.1,477.1v-110.8C732.1,164.3,568.3.5,366.3.5h0C164.3.5.5,164.3.5,366.3v372.5c0,29,38.4,44.7,63.9,14,12.5-19.9,40.6-65.7,68.3-64.4,27.7,1.3,49.7,38.5,60.5,52.3,10.8,13.8,30.7,32.9,60.1,31.6,29.4-1.3,47.6-32.4,72.2-61,21.2-24.2,57.9-34.6,85.2,7.4,27.2,41.9,46.7,52.8,76.5,52.8s50.6-29.8,70.1-58.4c13.4-19,55.3-39.3,80.4-2.6,25.1,36.8,39.8,61.5,63.1,61.9,23.4.4,31.2-24.3,31.2-35.5v-259.7l.1-.1ZM125.7,350c0-51.8,42.8-93.8,95.5-93.8s95.5,42,95.5,93.8-42.8,93.8-95.5,93.8-95.5-42-95.5-93.8ZM535.4,562.9c-6.7-1.8-35.5,22.7-62.5,18.8s-34.1-24.5-54.7-24.1-45.4,28.4-66.7,26.3c-21.3-2.1-41.2-25.6-54.3-25.9-13.1-.4-46.1,29-72,26-22.8-2.6-36.7-20.1-48.3-20.3-6.5-.1-18.7,13.5-33.5,2.1s-19.6-56.4,27.5-54.7c25,0,45.9,25.8,61,27.4,12.9,1.3,44.7-26.3,66-27.3s43.3,28.7,59.6,29.1,40.1-28.8,63.9-29.1,35.8,26.3,60,27.4c24.1,1.1,40.8-34.8,78.4-20.2,31.9,16,5.7,67.4-24.5,44.7l.1-.2ZM483.3,443.8c-52.8,0-95.5-42-95.5-93.8s42.8-93.8,95.5-93.8,95.5,42,95.5,93.8-42.8,93.8-95.5,93.8h0Z"/>
</svg>