<?xml version="1.0" encoding="UTF-8" standalone="no"?>
<!DOCTYPE svg PUBLIC "-//W3C//DTD SVG 1.1//EN" "http://www.w3.org/Graphics/SVG/1.1/DTD/svg11.dtd">
<svg width="100%" height="100%" viewBox="0 0 693 678" version="1.1" xmlns="http://www.w3.org/2000/svg" xmlns:xlink="http://www.w3.org/1999/xlink" xml:space="preserve" xmlns:serif="http://www.serif.com/" style="fill-rule:evenodd;clip-rule:evenodd;stroke-linejoin:round;stroke-miterlimit:2;">
    <g transform="matrix(-4.16667,0,0,4.16667,-0.000054,1.63333)">
        <path d="M0,161.867L-0.038,161.162L-0.038,68.644L-13.041,68.879L-13.272,30.135L-24.582,30.135L-24.813,17.689L-36.585,17.689L-36.585,5.713L-60.359,5.478L-60.821,-0.392L-108.831,-0.392L-109.062,5.243L-131.682,5.478L-131.682,17.454L-144.146,17.22L-144.146,29.429L-157.072,29.429L-157.303,67.001L-166.305,66.765L-166.074,161.632L-157.072,161.632L-157.014,151.769L-144.377,151.769L-144.377,138.385L-131.604,138.307L-131.604,150.83L-119.602,150.987L-119.449,162.101L-97.136,162.259L-97.136,138.307L-73.747,138.15L-73.9,162.101L-46.972,162.259L-46.817,150.203L-35.892,150.203L-36.008,138.15L-24.928,138.15L-24.813,150.126L-13.272,149.89L-13.272,161.984L0,161.867Z" style="fill:rgb(102,199,190);fill-rule:nonzero;"/>
    </g>
    <g transform="matrix(-4.16667,0,0,4.16667,146.665946,326.99)">
        <path d="M0,-36.238L-13.388,-36.238L-13.388,-47.779L-37.854,-47.779L-37.854,-36.238L-48.472,-36.238L-48.472,-0.923L-37.854,-0.923L-37.854,11.541L-13.388,11.541L-13.388,-0.923L0,-0.923L0,-36.238Z" style="fill:white;fill-rule:nonzero;"/>
    </g>
    <g transform="matrix(-4.16667,0,0,4.16667,446.730946,328.772)">
        <path d="M0,-35.862L-13.387,-35.862L-13.387,-47.283L-37.854,-47.283L-37.854,-35.862L-48.472,-35.862L-48.472,-0.913L-37.854,-0.913L-37.854,11.421L-13.387,11.421L-13.387,-0.913L0,-0.913L0,-35.862Z" style="fill:white;fill-rule:nonzero;"/>
    </g>
    <g transform="matrix(4.16667,0,0,4.16667,-1045.452054,-207.255)">
        <rect x="311.498" y="105.29" width="23.082" height="21.929" style="fill:rgb(45,85,166);"/>
    </g>
    <g transform="matrix(4.16667,0,0,4.16667,-445.312054,-202.663)">
        <rect x="239.482" y="104.854" width="23.082" height="21.699" style="fill:rgb(45,85,166);"/>
    </g>
</svg>
