<?xml version="1.0" encoding="UTF-8" standalone="no"?>
<!DOCTYPE svg PUBLIC "-//W3C//DTD SVG 1.1//EN" "http://www.w3.org/Graphics/SVG/1.1/DTD/svg11.dtd">
<svg width="100%" height="100%" viewBox="0 0 568 609" version="1.1" xmlns="http://www.w3.org/2000/svg" xmlns:xlink="http://www.w3.org/1999/xlink" xml:space="preserve" xmlns:serif="http://www.serif.com/" style="fill-rule:evenodd;clip-rule:evenodd;stroke-linejoin:round;stroke-miterlimit:2;">
    <g transform="matrix(-4.16667,0,0,4.16667,-0.00045404,433.046)">
        <path d="M0,-61.864L-13.609,-61.864L-13.609,-81.658L-23.509,-81.658L-23.509,-94.031L-47.016,-94.031L-47.016,-103.931L-101.454,-103.931L-101.454,-94.031L-123.726,-94.031L-123.726,-81.658L-136.1,-81.658L-136.1,-61.864L-114.777,-61.837L-114.797,-51.165L-78.511,-51.616L-78.278,-40.447L-55.245,-40.215L-55.012,-24.395L-78.278,-24.162L-78.278,-12.762L-114.341,-12.529L-114.341,-1.362L-136.212,-1.128L-136.1,16.085L-123.726,16.085L-123.726,32.17L-101.454,32.17L-101.454,42.067L-47.016,42.067L-47.016,32.17L-23.509,32.17L-23.509,16.085L-13.609,16.085L-13.609,-2.475L0,-2.475L0,-61.864Z" style="fill:rgb(255,242,0);fill-rule:nonzero;"/>
    </g>
</svg>
