<?xml version="1.0" encoding="UTF-8" standalone="no"?>
<!DOCTYPE svg PUBLIC "-//W3C//DTD SVG 1.1//EN" "http://www.w3.org/Graphics/SVG/1.1/DTD/svg11.dtd">
<svg width="100%" height="100%" viewBox="0 0 693 678" version="1.1" xmlns="http://www.w3.org/2000/svg" xmlns:xlink="http://www.w3.org/1999/xlink" xml:space="preserve" xmlns:serif="http://www.serif.com/" style="fill-rule:evenodd;clip-rule:evenodd;stroke-linejoin:round;stroke-miterlimit:2;">
    <g transform="matrix(4.16667,0,0,4.16667,692.938,1.62917)">
        <path d="M0,161.869L-0.038,161.164L-0.038,68.646L-13.041,68.881L-13.272,30.137L-24.582,30.137L-24.813,17.691L-36.585,17.691L-36.585,5.715L-60.359,5.48L-60.821,-0.391L-108.831,-0.391L-109.063,5.245L-131.683,5.48L-131.683,17.456L-144.146,17.222L-144.146,29.431L-157.072,29.431L-157.303,67.002L-166.305,66.766L-166.074,161.634L-157.072,161.634L-157.015,151.771L-144.377,151.771L-144.377,138.387L-131.604,138.309L-131.604,150.832L-119.603,150.989L-119.449,162.103L-97.136,162.26L-97.136,138.309L-73.747,138.152L-73.9,162.103L-46.972,162.26L-46.817,150.205L-35.893,150.205L-36.008,138.152L-24.929,138.152L-24.813,150.128L-13.272,149.892L-13.272,161.986L0,161.869Z" style="fill:rgb(247,185,209);fill-rule:nonzero;"/>
    </g>
    <g transform="matrix(4.16667,0,0,4.16667,546.27,326.994)">
        <path d="M0,-36.238L-13.388,-36.238L-13.388,-47.779L-37.854,-47.779L-37.854,-36.238L-48.472,-36.238L-48.472,-0.923L-37.854,-0.923L-37.854,11.541L-13.388,11.541L-13.388,-0.923L0,-0.923L0,-36.238Z" style="fill:white;fill-rule:nonzero;"/>
    </g>
    <g transform="matrix(4.16667,0,0,4.16667,246.205,328.772)">
        <path d="M0,-35.861L-13.387,-35.861L-13.387,-47.283L-37.854,-47.283L-37.854,-35.861L-48.472,-35.861L-48.472,-0.913L-37.854,-0.913L-37.854,11.422L-13.387,11.422L-13.387,-0.913L0,-0.913L0,-35.861Z" style="fill:white;fill-rule:nonzero;"/>
    </g>
    <g transform="matrix(-4.16667,0,0,4.16667,2482.78,-213.022)">
        <rect x="490.152" y="106.675" width="23.082" height="21.928" style="fill:rgb(45,85,166);"/>
    </g>
    <g transform="matrix(-4.16667,0,0,4.16667,1882.65,-208.418)">
        <rect x="418.137" y="106.237" width="23.082" height="21.699" style="fill:rgb(45,85,166);"/>
    </g>
</svg>
